<svg width="7191" height="1031" viewBox="0 0 7191 1031" fill="none" xmlns="http://www.w3.org/2000/svg">
<rect x="4481.13" y="0.185547" width="2707.19" height="665.898" rx="2" fill="#004DF9"/>
<path d="M5044.85 584.19H4988.56L4975.2 525.112C4951.74 551.838 4928.29 570.358 4904.83 580.674C4881.38 590.989 4854.41 596.146 4823.92 596.146C4786.39 596.146 4752.62 589.348 4722.6 575.75C4693.04 561.684 4667.95 542.695 4647.31 518.783C4626.67 494.87 4610.72 466.972 4599.46 435.089C4588.67 403.206 4583.28 369.212 4583.28 333.109C4583.28 297.475 4588.67 263.716 4599.46 231.833C4610.72 199.95 4626.67 172.052 4647.31 148.139C4667.95 124.227 4693.04 105.238 4722.6 91.1715C4752.62 77.1053 4786.39 70.0723 4823.92 70.0723C4851.12 70.0723 4876.92 73.8232 4901.32 81.3252C4926.18 88.3582 4948.22 99.1423 4967.46 113.677C4986.69 127.743 5002.64 145.561 5015.3 167.129C5027.97 188.697 5035.94 213.547 5039.22 241.679H4953.38C4951.04 225.269 4945.88 210.968 4937.9 198.778C4930.4 186.118 4920.78 175.568 4909.06 167.129C4897.33 158.689 4884.19 152.359 4869.65 148.139C4855.11 143.92 4839.87 141.81 4823.92 141.81C4797.18 141.81 4773.96 147.202 4754.26 157.986C4735.03 168.77 4719.31 183.305 4707.12 201.591C4694.92 219.408 4685.77 239.804 4679.68 262.779C4674.05 285.753 4671.23 309.197 4671.23 333.109C4671.23 357.022 4674.05 380.465 4679.68 403.44C4685.77 426.415 4694.92 447.045 4707.12 465.331C4719.31 483.148 4735.03 497.449 4754.26 508.233C4773.96 519.017 4797.18 524.409 4823.92 524.409C4846.43 524.878 4866.37 522.065 4883.72 515.969C4901.08 509.405 4915.62 500.262 4927.35 488.54C4939.55 476.35 4948.69 461.58 4954.79 444.232C4960.89 426.884 4964.17 407.66 4964.64 386.561H4830.95V319.746H5044.85V584.19Z" fill="white"/>
<path d="M5140.4 82.0285H5380.33C5435.68 82.0285 5477.2 93.9847 5504.87 117.897C5532.55 141.81 5546.39 175.1 5546.39 217.767C5546.39 241.679 5542.87 261.606 5535.83 277.548C5528.79 293.021 5520.59 305.68 5511.2 315.527C5501.82 324.904 5492.44 331.703 5483.06 335.923C5474.15 340.142 5467.58 342.956 5463.36 344.362V345.769C5470.86 346.707 5478.84 349.051 5487.28 352.802C5496.19 356.553 5504.4 362.648 5511.91 371.088C5519.41 379.059 5525.51 389.608 5530.2 402.737C5535.36 415.865 5537.94 432.276 5537.94 451.968C5537.94 481.507 5540.05 508.467 5544.27 532.849C5548.97 556.761 5556 573.875 5565.38 584.19H5471.1C5464.53 573.406 5460.54 561.45 5459.14 548.321C5458.2 535.193 5457.73 522.534 5457.73 510.343C5457.73 487.368 5456.32 467.676 5453.51 451.265C5450.69 434.386 5445.53 420.554 5438.03 409.77C5430.52 398.517 5420.2 390.312 5407.07 385.154C5394.4 379.997 5377.99 377.418 5357.82 377.418H5228.35V584.19H5140.4V82.0285ZM5228.35 310.603H5372.59C5400.74 310.603 5422.08 304.039 5436.62 290.911C5451.16 277.314 5458.43 257.152 5458.43 230.426C5458.43 214.485 5456.09 201.591 5451.4 191.744C5446.71 181.429 5440.14 173.458 5431.7 167.832C5423.72 162.206 5414.34 158.455 5403.55 156.579C5393.23 154.704 5382.44 153.766 5371.18 153.766H5228.35V310.603Z" fill="white"/>
<path d="M5849.72 141.81C5822.98 141.81 5799.76 147.202 5780.06 157.986C5760.83 168.77 5745.11 183.305 5732.92 201.591C5720.72 219.408 5711.57 239.804 5705.47 262.779C5699.85 285.753 5697.03 309.197 5697.03 333.109C5697.03 357.022 5699.85 380.465 5705.47 403.44C5711.57 426.415 5720.72 447.045 5732.92 465.331C5745.11 483.148 5760.83 497.449 5780.06 508.233C5799.76 519.017 5822.98 524.409 5849.72 524.409C5876.45 524.409 5899.44 519.017 5918.67 508.233C5938.37 497.449 5954.32 483.148 5966.52 465.331C5978.71 447.045 5987.63 426.415 5993.26 403.44C5999.35 380.465 6002.4 357.022 6002.4 333.109C6002.4 309.197 5999.35 285.753 5993.26 262.779C5987.63 239.804 5978.71 219.408 5966.52 201.591C5954.32 183.305 5938.37 168.77 5918.67 157.986C5899.44 147.202 5876.45 141.81 5849.72 141.81ZM5849.72 70.0723C5887.24 70.0723 5920.78 77.1053 5950.33 91.1715C5980.36 105.238 6005.69 124.227 6026.33 148.139C6046.96 172.052 6062.68 199.95 6073.47 231.833C6084.73 263.716 6090.36 297.475 6090.36 333.109C6090.36 369.212 6084.73 403.206 6073.47 435.089C6062.68 466.972 6046.96 494.87 6026.33 518.783C6005.69 542.695 5980.36 561.684 5950.33 575.75C5920.78 589.348 5887.24 596.146 5849.72 596.146C5812.19 596.146 5778.42 589.348 5748.4 575.75C5718.84 561.684 5693.75 542.695 5673.11 518.783C5652.47 494.87 5636.52 466.972 5625.26 435.089C5614.47 403.206 5609.08 369.212 5609.08 333.109C5609.08 297.475 5614.47 263.716 5625.26 231.833C5636.52 199.95 5652.47 172.052 5673.11 148.139C5693.75 124.227 5718.84 105.238 5748.4 91.1715C5778.42 77.1053 5812.19 70.0723 5849.72 70.0723Z" fill="white"/>
<path d="M6164.77 82.0285H6252.73V374.604C6252.73 391.484 6253.43 408.598 6254.84 425.946C6256.71 443.294 6261.4 459.001 6268.91 473.068C6276.88 486.665 6288.61 497.918 6304.09 506.826C6320.04 515.735 6342.32 520.189 6370.93 520.189C6399.55 520.189 6421.59 515.735 6437.07 506.826C6453.02 497.918 6464.75 486.665 6472.26 473.068C6480.23 459.001 6484.92 443.294 6486.33 425.946C6488.2 408.598 6489.14 391.484 6489.14 374.604V82.0285H6577.09V403.44C6577.09 435.792 6572.17 463.925 6562.32 487.837C6552.47 511.749 6538.4 531.911 6520.1 548.321C6502.28 564.263 6480.7 576.219 6455.37 584.19C6430.04 592.161 6401.89 596.146 6370.93 596.146C6339.97 596.146 6311.83 592.161 6286.5 584.19C6261.17 576.219 6239.36 564.263 6221.06 548.321C6203.24 531.911 6189.4 511.749 6179.55 487.837C6169.7 463.925 6164.77 435.792 6164.77 403.44V82.0285Z" fill="white"/>
<path d="M6678.19 82.0285H6899.83C6935.48 82.0285 6964.56 87.1861 6987.08 97.5012C7009.59 107.816 7026.95 120.71 7039.15 136.183C7051.34 151.656 7059.55 168.535 7063.77 186.821C7068.46 205.107 7070.81 221.987 7070.81 237.459C7070.81 252.932 7068.46 269.812 7063.77 288.098C7059.55 305.915 7051.34 322.56 7039.15 338.032C7026.95 353.505 7009.59 366.399 6987.08 376.714C6964.56 386.561 6935.48 391.484 6899.83 391.484H6766.14V584.19H6678.19V82.0285ZM6766.14 319.746H6894.9C6904.76 319.746 6914.84 318.34 6925.16 315.527C6935.48 312.713 6944.86 308.259 6953.31 302.164C6962.22 295.6 6969.25 287.16 6974.41 276.845C6980.04 266.061 6982.86 252.698 6982.86 236.756C6982.86 220.346 6980.51 206.748 6975.82 195.964C6971.13 185.18 6964.8 176.741 6956.82 170.645C6948.85 164.081 6939.7 159.627 6929.38 157.282C6919.06 154.938 6908.04 153.766 6896.31 153.766H6766.14V319.746Z" fill="white"/>
<path d="M192.792 82.0285H286.373L479.868 584.19H385.583L338.441 451.265H137.909L90.7669 584.19H0L192.792 82.0285ZM161.832 384.451H315.222L239.934 168.535H237.823L161.832 384.451Z" fill="white"/>
<path d="M966.064 584.19H909.774L896.406 525.112C872.952 551.838 849.498 570.358 826.044 580.674C802.59 590.989 775.618 596.146 745.128 596.146C707.601 596.146 673.827 589.348 643.806 575.75C614.254 561.684 589.159 542.695 568.519 518.783C547.879 494.87 531.931 466.972 520.673 435.089C509.884 403.206 504.49 369.212 504.49 333.109C504.49 297.475 509.884 263.716 520.673 231.833C531.931 199.95 547.879 172.052 568.519 148.139C589.159 124.227 614.254 105.238 643.806 91.1715C673.827 77.1053 707.601 70.0723 745.128 70.0723C772.334 70.0723 798.133 73.8232 822.526 81.3252C847.387 88.3582 869.434 99.1423 888.666 113.677C907.898 127.743 923.847 145.561 936.512 167.129C949.177 188.697 957.151 213.547 960.435 241.679H874.593C872.248 225.269 867.088 210.968 859.114 198.778C851.609 186.118 841.992 175.568 830.265 167.129C818.538 158.689 805.404 152.359 790.863 148.139C776.321 143.92 761.076 141.81 745.128 141.81C718.39 141.81 695.17 147.202 675.469 157.986C656.237 168.77 640.523 183.305 628.327 201.591C616.131 219.408 606.984 239.804 600.885 262.779C595.257 285.753 592.442 309.197 592.442 333.109C592.442 357.022 595.257 380.465 600.885 403.44C606.984 426.415 616.131 447.045 628.327 465.331C640.523 483.148 656.237 497.449 675.469 508.233C695.17 519.017 718.39 524.409 745.128 524.409C767.643 524.878 787.579 522.065 804.935 515.969C822.291 509.405 836.833 500.262 848.56 488.54C860.756 476.35 869.903 461.58 876.001 444.232C882.099 426.884 885.382 407.66 885.851 386.561H752.164V319.746H966.064V584.19Z" fill="white"/>
<path d="M1061.61 82.0285H1301.54C1356.89 82.0285 1398.41 93.9847 1426.08 117.897C1453.76 141.81 1467.6 175.1 1467.6 217.767C1467.6 241.679 1464.08 261.606 1457.04 277.548C1450.01 293.021 1441.8 305.68 1432.42 315.527C1423.03 324.904 1413.65 331.703 1404.27 335.923C1395.36 340.142 1388.79 342.956 1384.57 344.362V345.769C1392.07 346.707 1400.05 349.051 1408.49 352.802C1417.4 356.553 1425.61 362.648 1433.12 371.088C1440.62 379.059 1446.72 389.608 1451.41 402.737C1456.57 415.865 1459.15 432.276 1459.15 451.968C1459.15 481.507 1461.26 508.467 1465.49 532.849C1470.18 556.761 1477.21 573.875 1486.59 584.19H1392.31C1385.74 573.406 1381.75 561.45 1380.35 548.321C1379.41 535.193 1378.94 522.534 1378.94 510.343C1378.94 487.368 1377.53 467.676 1374.72 451.265C1371.9 434.386 1366.74 420.554 1359.24 409.77C1351.73 398.517 1341.41 390.312 1328.28 385.154C1315.61 379.997 1299.2 377.418 1279.03 377.418H1149.56V584.19H1061.61V82.0285ZM1149.56 310.603H1293.8C1321.95 310.603 1343.29 304.039 1357.83 290.911C1372.37 277.314 1379.64 257.152 1379.64 230.426C1379.64 214.485 1377.3 201.591 1372.61 191.744C1367.92 181.429 1361.35 173.458 1352.91 167.832C1344.93 162.206 1335.55 158.455 1324.76 156.579C1314.44 154.704 1303.65 153.766 1292.39 153.766H1149.56V310.603Z" fill="white"/>
<path d="M1691.42 82.0285H1785L1978.5 584.19H1884.21L1837.07 451.265H1636.54L1589.39 584.19H1498.63L1691.42 82.0285ZM1660.46 384.451H1813.85L1738.56 168.535H1736.45L1660.46 384.451Z" fill="white"/>
<path d="M2365.48 241.679C2361.73 227.144 2356.57 213.781 2350 201.591C2343.43 189.4 2334.99 178.85 2324.67 169.942C2314.35 161.033 2302.15 154.235 2288.08 149.546C2274.48 144.388 2258.53 141.81 2240.24 141.81C2213.5 141.81 2190.28 147.202 2170.58 157.986C2151.35 168.77 2135.63 183.305 2123.44 201.591C2111.24 219.408 2102.09 239.804 2095.99 262.779C2090.37 285.753 2087.55 309.197 2087.55 333.109C2087.55 357.022 2090.37 380.465 2095.99 403.44C2102.09 426.415 2111.24 447.045 2123.44 465.331C2135.63 483.148 2151.35 497.449 2170.58 508.233C2190.28 519.017 2213.5 524.409 2240.24 524.409C2259.94 524.409 2277.29 521.127 2292.3 514.563C2307.31 507.53 2320.21 498.152 2331 486.43C2341.79 474.24 2350.24 460.174 2356.33 444.232C2362.43 428.29 2366.42 411.176 2368.29 392.89H2454.14C2452.26 422.898 2445.69 450.327 2434.44 475.177C2423.65 500.028 2408.87 521.596 2390.11 539.882C2371.34 557.699 2349.3 571.531 2323.97 581.377C2298.64 591.223 2270.73 596.146 2240.24 596.146C2202.71 596.146 2168.94 589.348 2138.92 575.75C2109.36 561.684 2084.27 542.695 2063.63 518.783C2042.99 494.87 2027.04 466.972 2015.78 435.089C2004.99 403.206 1999.6 369.212 1999.6 333.109C1999.6 297.475 2004.99 263.716 2015.78 231.833C2027.04 199.95 2042.99 172.052 2063.63 148.139C2084.27 124.227 2109.36 105.238 2138.92 91.1715C2168.94 77.1053 2202.71 70.0723 2240.24 70.0723C2268.38 70.0723 2294.88 74.0577 2319.75 82.0285C2344.61 89.5304 2366.42 100.783 2385.18 115.787C2404.41 130.322 2419.89 148.139 2431.62 169.239C2443.35 190.338 2450.62 214.485 2453.43 241.679H2365.48Z" fill="white"/>
<path d="M2532.01 82.0285H2619.97V281.768H2848.64V82.0285H2936.59V584.19H2848.64V357.725H2619.97V584.19H2532.01V82.0285Z" fill="white"/>
<path d="M3255.8 141.81C3229.06 141.81 3205.84 147.202 3186.14 157.986C3166.91 168.77 3151.2 183.305 3139 201.591C3126.8 219.408 3117.66 239.804 3111.56 262.779C3105.93 285.753 3103.12 309.197 3103.12 333.109C3103.12 357.022 3105.93 380.465 3111.56 403.44C3117.66 426.415 3126.8 447.045 3139 465.331C3151.2 483.148 3166.91 497.449 3186.14 508.233C3205.84 519.017 3229.06 524.409 3255.8 524.409C3282.54 524.409 3305.52 519.017 3324.76 508.233C3344.46 497.449 3360.41 483.148 3372.6 465.331C3384.8 447.045 3393.71 426.415 3399.34 403.44C3405.44 380.465 3408.49 357.022 3408.49 333.109C3408.49 309.197 3405.44 285.753 3399.34 262.779C3393.71 239.804 3384.8 219.408 3372.6 201.591C3360.41 183.305 3344.46 168.77 3324.76 157.986C3305.52 147.202 3282.54 141.81 3255.8 141.81ZM3255.8 70.0723C3293.33 70.0723 3326.87 77.1053 3356.42 91.1715C3386.44 105.238 3411.77 124.227 3432.41 148.139C3453.05 172.052 3468.76 199.95 3479.55 231.833C3490.81 263.716 3496.44 297.475 3496.44 333.109C3496.44 369.212 3490.81 403.206 3479.55 435.089C3468.76 466.972 3453.05 494.87 3432.41 518.783C3411.77 542.695 3386.44 561.684 3356.42 575.75C3326.87 589.348 3293.33 596.146 3255.8 596.146C3218.27 596.146 3184.5 589.348 3154.48 575.75C3124.93 561.684 3099.83 542.695 3079.19 518.783C3058.55 494.87 3042.6 466.972 3031.35 435.089C3020.56 403.206 3015.16 369.212 3015.16 333.109C3015.16 297.475 3020.56 263.716 3031.35 231.833C3042.6 199.95 3058.55 172.052 3079.19 148.139C3099.83 124.227 3124.93 105.238 3154.48 91.1715C3184.5 77.1053 3218.27 70.0723 3255.8 70.0723Z" fill="white"/>
<path d="M3576.49 82.0285H3923.37V157.986H3664.44V289.504H3891.71V361.242H3664.44V584.19H3576.49V82.0285Z" fill="white"/>
<path d="M3993.58 82.0285H4340.46V157.986H4081.53V289.504H4308.8V361.242H4081.53V584.19H3993.58V82.0285Z" fill="white"/>
<path d="M21.3252 961.741V769.532H109.616C128.571 769.532 143.037 773.77 153.013 782.246C162.99 790.473 167.978 801.941 167.978 816.649C167.978 828.616 164.735 838.089 158.251 845.069C151.766 852.05 143.162 856.662 132.437 858.905V859.653C145.656 862.146 156.006 867.382 163.488 875.359C171.22 883.087 175.086 894.056 175.086 908.266C175.086 925.468 169.1 938.681 157.128 947.905C145.406 957.129 128.945 961.741 107.745 961.741H21.3252ZM35.5415 781.872V854.044H108.12C122.336 854.044 133.435 850.928 141.416 844.695C149.646 838.463 153.761 829.737 153.761 818.519C153.761 806.553 149.771 797.453 141.79 791.221C134.058 784.988 122.959 781.872 108.494 781.872H35.5415ZM107.371 949.401C124.581 949.401 137.799 945.911 147.027 938.93C156.256 931.701 160.87 921.355 160.87 907.893C160.87 895.178 156.505 885.082 147.776 877.603C139.046 870.124 126.077 866.384 108.868 866.384H35.5415V949.401H107.371Z" fill="white"/>
<path d="M335.581 923.598H334.833C332.588 929.332 329.345 934.817 325.106 940.052C320.866 945.038 315.628 949.525 309.393 953.514C303.407 957.503 296.548 960.619 288.816 962.863C281.085 965.107 272.605 966.228 263.377 966.228C242.925 966.228 227.088 961.866 215.864 953.14C204.641 944.166 199.029 930.454 199.029 912.006C199.029 900.788 201.274 891.688 205.763 884.708C210.253 877.478 215.864 871.869 222.598 867.88C229.582 863.642 237.189 860.65 245.419 858.905C253.899 857.16 262.005 855.914 269.737 855.166L291.809 853.296C302.035 852.548 310.016 851.426 315.753 849.931C321.738 848.186 326.228 845.942 329.221 843.2C332.214 840.208 334.084 836.468 334.833 831.981C335.581 827.494 335.955 821.885 335.955 815.153C335.955 809.918 334.957 805.057 332.962 800.569C330.967 796.082 327.849 792.093 323.609 788.603C319.369 785.113 313.882 782.371 307.148 780.376C300.414 778.382 292.184 777.385 282.457 777.385C265.247 777.385 251.28 781.623 240.556 790.099C230.081 798.575 224.344 811.414 223.347 828.616H209.13C210.128 807.425 216.862 791.595 229.332 781.124C242.052 770.404 260.01 765.044 283.205 765.044C306.4 765.044 323.235 769.656 333.71 778.88C344.435 787.855 349.797 799.697 349.797 814.406V926.216C349.797 928.958 349.797 931.701 349.797 934.443C350.046 937.185 350.545 939.678 351.294 941.922C352.042 944.165 353.289 946.035 355.035 947.531C356.78 948.778 359.275 949.401 362.517 949.401C365.011 949.401 368.503 949.027 372.992 948.279V960.245C369.251 961.242 365.385 961.741 361.395 961.741C355.658 961.741 351.044 960.993 347.552 959.497C344.31 958.002 341.816 956.007 340.07 953.514C338.324 951.021 337.077 948.154 336.329 944.913C335.83 941.423 335.581 937.684 335.581 933.695V923.598ZM335.581 852.548C332.089 856.786 326.727 859.653 319.494 861.149C312.51 862.645 304.654 863.767 295.925 864.515L271.981 866.758C264.998 867.506 258.014 868.628 251.031 870.124C244.048 871.37 237.688 873.614 231.951 876.855C226.464 880.096 221.975 884.583 218.483 890.317C214.991 895.802 213.246 903.031 213.246 912.006C213.246 926.216 217.735 936.811 226.714 943.792C235.692 950.523 248.038 953.888 263.751 953.888C279.962 953.888 292.807 951.021 302.285 945.287C311.762 939.304 318.995 932.573 323.983 925.094C328.971 917.366 332.089 910.012 333.336 903.031C334.833 895.802 335.581 890.94 335.581 888.447V852.548Z" fill="white"/>
<path d="M640.483 961.741H395.065V769.532H409.281V949.401H510.666V769.532H524.882V949.401H626.267V769.532H640.483V961.741Z" fill="white"/>
<path d="M820.274 788.977H819.9L699.81 961.741H682.226V769.532H696.443V943.044H696.817L816.533 769.532H834.491V961.741H820.274V788.977Z" fill="white"/>
<path d="M1116.9 816.275C1116.9 827.743 1113.03 837.341 1105.3 845.069C1097.82 852.548 1087.97 857.285 1075.75 859.279V859.653C1090.21 861.398 1101.44 866.01 1109.42 873.489C1117.65 880.968 1121.76 891.813 1121.76 906.023C1121.76 915.995 1119.64 924.72 1115.4 932.199C1111.41 939.678 1105.93 946.035 1098.94 951.271C1092.21 956.257 1084.35 959.996 1075.37 962.489C1066.64 964.982 1057.42 966.228 1047.69 966.228C1023.5 966.228 1004.42 960.744 990.449 949.775C976.732 938.556 969.873 920.981 969.873 897.048H984.089C984.089 916.493 989.576 930.828 1000.55 940.052C1011.77 949.276 1027.49 953.888 1047.69 953.888C1054.92 953.888 1062.15 952.891 1069.39 950.897C1076.62 948.902 1082.98 946.035 1088.47 942.296C1094.2 938.307 1098.82 933.321 1102.31 927.338C1105.8 921.355 1107.55 914.25 1107.55 906.023C1107.55 891.813 1102.31 881.716 1091.83 875.733C1081.61 869.501 1067.27 866.384 1048.81 866.384H1027.86V853.67H1045.07C1051.8 853.67 1058.54 853.171 1065.27 852.174C1072.26 850.928 1078.49 848.933 1083.98 846.191C1089.46 843.449 1093.95 839.709 1097.45 834.973C1100.94 829.987 1102.68 823.754 1102.68 816.275C1102.68 803.561 1097.82 793.963 1088.09 787.481C1078.37 780.75 1065.65 777.385 1049.93 777.385C1032.23 777.385 1018.01 781.124 1007.28 788.603C996.809 795.833 990.823 808.298 989.327 825.998H975.111C975.609 805.555 982.718 790.348 996.435 780.376C1010.15 770.155 1028.11 765.044 1050.31 765.044C1060.03 765.044 1068.89 766.166 1076.87 768.41C1085.1 770.404 1092.08 773.521 1097.82 777.759C1103.81 781.997 1108.42 787.357 1111.66 793.838C1115.15 800.32 1116.9 807.799 1116.9 816.275Z" fill="white"/>
<path d="M1283.65 923.598H1282.9C1280.66 929.332 1277.42 934.817 1273.18 940.052C1268.94 945.038 1263.7 949.525 1257.46 953.514C1251.48 957.503 1244.62 960.619 1236.89 962.863C1229.16 965.107 1220.68 966.228 1211.45 966.228C1191 966.228 1175.16 961.866 1163.94 953.14C1152.71 944.166 1147.1 930.454 1147.1 912.006C1147.1 900.788 1149.35 891.688 1153.83 884.708C1158.32 877.478 1163.94 871.869 1170.67 867.88C1177.65 863.642 1185.26 860.65 1193.49 858.905C1201.97 857.16 1210.08 855.914 1217.81 855.166L1239.88 853.296C1250.11 852.548 1258.09 851.426 1263.82 849.931C1269.81 848.186 1274.3 845.942 1277.29 843.2C1280.29 840.208 1282.16 836.468 1282.9 831.981C1283.65 827.494 1284.03 821.885 1284.03 815.153C1284.03 809.918 1283.03 805.057 1281.03 800.569C1279.04 796.082 1275.92 792.093 1271.68 788.603C1267.44 785.113 1261.95 782.371 1255.22 780.376C1248.49 778.382 1240.25 777.385 1230.53 777.385C1213.32 777.385 1199.35 781.623 1188.63 790.099C1178.15 798.575 1172.42 811.414 1171.42 828.616H1157.2C1158.2 807.425 1164.93 791.595 1177.4 781.124C1190.12 770.404 1208.08 765.044 1231.28 765.044C1254.47 765.044 1271.31 769.656 1281.78 778.88C1292.51 787.855 1297.87 799.697 1297.87 814.406V926.216C1297.87 928.958 1297.87 931.701 1297.87 934.443C1298.12 937.185 1298.62 939.678 1299.36 941.922C1300.11 944.165 1301.36 946.035 1303.11 947.531C1304.85 948.778 1307.35 949.401 1310.59 949.401C1313.08 949.401 1316.57 949.027 1321.06 948.279V960.245C1317.32 961.242 1313.46 961.741 1309.47 961.741C1303.73 961.741 1299.12 960.993 1295.62 959.497C1292.38 958.002 1289.89 956.007 1288.14 953.514C1286.4 951.021 1285.15 948.154 1284.4 944.913C1283.9 941.423 1283.65 937.684 1283.65 933.695V923.598ZM1283.65 852.548C1280.16 856.786 1274.8 859.653 1267.57 861.149C1260.58 862.645 1252.73 863.767 1244 864.515L1220.05 866.758C1213.07 867.506 1206.09 868.628 1199.1 870.124C1192.12 871.37 1185.76 873.614 1180.02 876.855C1174.54 880.096 1170.05 884.583 1166.55 890.317C1163.06 895.802 1161.32 903.031 1161.32 912.006C1161.32 926.216 1165.81 936.811 1174.79 943.792C1183.76 950.523 1196.11 953.888 1211.82 953.888C1228.03 953.888 1240.88 951.021 1250.36 945.287C1259.83 939.304 1267.07 932.573 1272.05 925.094C1277.04 917.366 1280.16 910.012 1281.41 903.031C1282.9 895.802 1283.65 890.94 1283.65 888.447V852.548Z" fill="white"/>
<path d="M1340.14 961.741H1322.19L1386.53 878.351C1379.8 877.603 1373.31 875.982 1367.08 873.489C1361.09 870.747 1355.86 867.257 1351.37 863.019C1346.88 858.531 1343.26 853.171 1340.52 846.939C1338.02 840.457 1336.78 832.978 1336.78 824.502C1336.78 808.048 1342.14 794.836 1352.86 784.864C1363.59 774.642 1378.3 769.532 1397.01 769.532H1483.8V961.741H1469.59V878.725H1402.99L1340.14 961.741ZM1469.59 781.872H1398.51C1383.29 781.872 1371.57 785.861 1363.34 793.838C1355.36 801.567 1351.37 811.788 1351.37 824.502C1351.37 837.964 1355.36 848.31 1363.34 855.54C1371.57 862.769 1382.79 866.384 1397.01 866.384H1469.59V781.872Z" fill="white"/>
<path d="M1526.18 961.741V769.532H1614.47C1633.43 769.532 1647.89 773.77 1657.87 782.246C1667.85 790.473 1672.84 801.941 1672.84 816.649C1672.84 828.616 1669.59 838.089 1663.11 845.069C1656.62 852.05 1648.02 856.662 1637.29 858.905V859.653C1650.51 862.146 1660.86 867.382 1668.35 875.359C1676.08 883.087 1679.94 894.056 1679.94 908.266C1679.94 925.468 1673.96 938.681 1661.99 947.905C1650.26 957.129 1633.8 961.741 1612.6 961.741H1526.18ZM1540.4 781.872V854.044H1612.98C1627.19 854.044 1638.29 850.928 1646.27 844.695C1654.5 838.463 1658.62 829.737 1658.62 818.519C1658.62 806.553 1654.63 797.453 1646.65 791.221C1638.92 784.988 1627.82 781.872 1613.35 781.872H1540.4ZM1612.23 949.401C1629.44 949.401 1642.66 945.911 1651.89 938.93C1661.11 931.701 1665.73 921.355 1665.73 907.893C1665.73 895.178 1661.36 885.082 1652.63 877.603C1643.9 870.124 1630.93 866.384 1613.73 866.384H1540.4V949.401H1612.23Z" fill="white"/>
<path d="M1713.61 769.532H1727.83V874.611L1846.42 769.532H1867L1782.83 844.321L1872.99 961.741H1853.53L1771.6 855.166L1727.83 892.187V961.741H1713.61V769.532Z" fill="white"/>
<path d="M2024.09 788.977H2023.71L1903.62 961.741H1886.04V769.532H1900.26V943.044H1900.63L2020.35 769.532H2038.3V961.741H2024.09V788.977Z" fill="white"/>
<path d="M2442.06 865.636H2318.23V961.741H2304.01V769.532H2318.23V853.296H2442.06V769.532H2456.28V961.741H2442.06V865.636Z" fill="white"/>
<path d="M2625.58 923.598H2624.83C2622.59 929.332 2619.35 934.817 2615.11 940.052C2610.87 945.038 2605.63 949.525 2599.39 953.514C2593.41 957.503 2586.55 960.619 2578.82 962.863C2571.09 965.107 2562.61 966.228 2553.38 966.228C2532.93 966.228 2517.09 961.866 2505.87 953.14C2494.64 944.166 2489.03 930.454 2489.03 912.006C2489.03 900.788 2491.28 891.688 2495.77 884.708C2500.25 877.478 2505.87 871.869 2512.6 867.88C2519.58 863.642 2527.19 860.65 2535.42 858.905C2543.9 857.16 2552.01 855.914 2559.74 855.166L2581.81 853.296C2592.04 852.548 2600.02 851.426 2605.75 849.931C2611.74 848.186 2616.23 845.942 2619.22 843.2C2622.22 840.208 2624.09 836.468 2624.83 831.981C2625.58 827.494 2625.96 821.885 2625.96 815.153C2625.96 809.918 2624.96 805.057 2622.96 800.569C2620.97 796.082 2617.85 792.093 2613.61 788.603C2609.37 785.113 2603.88 782.371 2597.15 780.376C2590.42 778.382 2582.19 777.385 2572.46 777.385C2555.25 777.385 2541.28 781.623 2530.56 790.099C2520.08 798.575 2514.35 811.414 2513.35 828.616H2499.13C2500.13 807.425 2506.86 791.595 2519.33 781.124C2532.05 770.404 2550.01 765.044 2573.21 765.044C2596.4 765.044 2613.24 769.656 2623.71 778.88C2634.44 787.855 2639.8 799.697 2639.8 814.406V926.216C2639.8 928.958 2639.8 931.701 2639.8 934.443C2640.05 937.185 2640.55 939.678 2641.3 941.922C2642.04 944.165 2643.29 946.035 2645.04 947.531C2646.78 948.778 2649.28 949.401 2652.52 949.401C2655.01 949.401 2658.5 949.027 2662.99 948.279V960.245C2659.25 961.242 2655.39 961.741 2651.4 961.741C2645.66 961.741 2641.05 960.993 2637.55 959.497C2634.31 958.002 2631.82 956.007 2630.07 953.514C2628.33 951.021 2627.08 948.154 2626.33 944.913C2625.83 941.423 2625.58 937.684 2625.58 933.695V923.598ZM2625.58 852.548C2622.09 856.786 2616.73 859.653 2609.5 861.149C2602.51 862.645 2594.66 863.767 2585.93 864.515L2561.98 866.758C2555 867.506 2548.02 868.628 2541.03 870.124C2534.05 871.37 2527.69 873.614 2521.95 876.855C2516.47 880.096 2511.98 884.583 2508.48 890.317C2504.99 895.802 2503.25 903.031 2503.25 912.006C2503.25 926.216 2507.74 936.811 2516.72 943.792C2525.69 950.523 2538.04 953.888 2553.75 953.888C2569.96 953.888 2582.81 951.021 2592.29 945.287C2601.76 939.304 2609 932.573 2613.99 925.094C2618.97 917.366 2622.09 910.012 2623.34 903.031C2624.83 895.802 2625.58 890.94 2625.58 888.447V852.548Z" fill="white"/>
<path d="M2930.49 961.741H2685.07V769.532H2699.28V949.401H2800.67V769.532H2814.88V949.401H2916.27V769.532H2930.49V961.741Z" fill="white"/>
<path d="M3099.8 923.598H3099.05C3096.81 929.332 3093.57 934.817 3089.33 940.052C3085.09 945.038 3079.85 949.525 3073.61 953.514C3067.63 957.503 3060.77 960.619 3053.04 962.863C3045.31 965.107 3036.82 966.228 3027.6 966.228C3007.15 966.228 2991.31 961.866 2980.08 953.14C2968.86 944.166 2963.25 930.454 2963.25 912.006C2963.25 900.788 2965.49 891.688 2969.98 884.708C2974.47 877.478 2980.08 871.869 2986.82 867.88C2993.8 863.642 3001.41 860.65 3009.64 858.905C3018.12 857.16 3026.23 855.914 3033.96 855.166L3056.03 853.296C3066.26 852.548 3074.24 851.426 3079.97 849.931C3085.96 848.186 3090.45 845.942 3093.44 843.2C3096.43 840.208 3098.3 836.468 3099.05 831.981C3099.8 827.494 3100.17 821.885 3100.17 815.153C3100.17 809.918 3099.18 805.057 3097.18 800.569C3095.19 796.082 3092.07 792.093 3087.83 788.603C3083.59 785.113 3078.1 782.371 3071.37 780.376C3064.63 778.382 3056.4 777.385 3046.68 777.385C3029.47 777.385 3015.5 781.623 3004.78 790.099C2994.3 798.575 2988.56 811.414 2987.57 828.616H2973.35C2974.35 807.425 2981.08 791.595 2993.55 781.124C3006.27 770.404 3024.23 765.044 3047.43 765.044C3070.62 765.044 3087.46 769.656 3097.93 778.88C3108.66 787.855 3114.02 799.697 3114.02 814.406V926.216C3114.02 928.958 3114.02 931.701 3114.02 934.443C3114.27 937.185 3114.77 939.678 3115.51 941.922C3116.26 944.165 3117.51 946.035 3119.25 947.531C3121 948.778 3123.49 949.401 3126.74 949.401C3129.23 949.401 3132.72 949.027 3137.21 948.279V960.245C3133.47 961.242 3129.6 961.741 3125.61 961.741C3119.88 961.741 3115.26 960.993 3111.77 959.497C3108.53 958.002 3106.04 956.007 3104.29 953.514C3102.54 951.021 3101.3 948.154 3100.55 944.913C3100.05 941.423 3099.8 937.684 3099.8 933.695V923.598ZM3099.8 852.548C3096.31 856.786 3090.95 859.653 3083.71 861.149C3076.73 862.645 3068.87 863.767 3060.14 864.515L3036.2 866.758C3029.22 867.506 3022.23 868.628 3015.25 870.124C3008.27 871.37 3001.91 873.614 2996.17 876.855C2990.68 880.096 2986.2 884.583 2982.7 890.317C2979.21 895.802 2977.47 903.031 2977.47 912.006C2977.47 926.216 2981.95 936.811 2990.93 943.792C2999.91 950.523 3012.26 953.888 3027.97 953.888C3044.18 953.888 3057.03 951.021 3066.5 945.287C3075.98 939.304 3083.22 932.573 3088.2 925.094C3093.19 917.366 3096.31 910.012 3097.56 903.031C3099.05 895.802 3099.8 890.94 3099.8 888.447V852.548Z" fill="white"/>
<path d="M3280.99 813.658H3281.74C3283.24 808.921 3285.73 803.686 3289.22 797.952C3292.71 792.218 3297.33 786.983 3303.06 782.246C3308.8 777.26 3315.66 773.147 3323.64 769.906C3331.87 766.665 3341.22 765.044 3351.7 765.044C3366.41 765.044 3379.13 767.787 3389.86 773.271C3400.83 778.756 3409.81 786.11 3416.79 795.334C3424.03 804.558 3429.39 815.278 3432.88 827.494C3436.37 839.709 3438.12 852.548 3438.12 866.01C3438.12 880.719 3436.37 894.181 3432.88 906.397C3429.39 918.612 3424.03 929.208 3416.79 938.182C3409.81 946.908 3400.83 953.764 3389.86 958.749C3379.13 963.735 3366.41 966.228 3351.7 966.228C3335.74 966.228 3321.52 962.738 3309.05 955.758C3296.58 948.778 3287.48 937.434 3281.74 921.729H3280.99V1030.55H3266.78V769.532H3280.99V813.658ZM3351.7 953.888C3364.17 953.888 3374.89 951.52 3383.87 946.783C3393.1 942.046 3400.58 935.689 3406.32 927.712C3412.31 919.734 3416.67 910.51 3419.41 900.04C3422.41 889.32 3423.9 877.977 3423.9 866.01C3423.9 855.041 3422.53 844.321 3419.79 833.851C3417.04 823.131 3412.8 813.658 3407.07 805.431C3401.33 796.955 3393.85 790.224 3384.62 785.238C3375.64 780.002 3364.67 777.385 3351.7 777.385C3338.98 777.385 3328.13 779.878 3319.15 784.864C3310.17 789.85 3302.82 796.456 3297.08 804.683C3291.59 812.91 3287.6 822.383 3285.11 833.103C3282.61 843.573 3281.37 854.543 3281.37 866.01C3281.37 877.478 3282.49 888.572 3284.73 899.292C3286.98 909.762 3290.72 919.111 3295.96 927.338C3301.44 935.315 3308.68 941.797 3317.66 946.783C3326.88 951.52 3338.23 953.888 3351.7 953.888Z" fill="white"/>
<path d="M3598.86 923.598H3598.11C3595.87 929.332 3592.63 934.817 3588.39 940.052C3584.15 945.038 3578.91 949.525 3572.68 953.514C3566.69 957.503 3559.83 960.619 3552.1 962.863C3544.37 965.107 3535.89 966.228 3526.66 966.228C3506.21 966.228 3490.37 961.866 3479.15 953.14C3467.92 944.166 3462.31 930.454 3462.31 912.006C3462.31 900.788 3464.56 891.688 3469.05 884.708C3473.53 877.478 3479.15 871.869 3485.88 867.88C3492.86 863.642 3500.47 860.65 3508.7 858.905C3517.18 857.16 3525.29 855.914 3533.02 855.166L3555.09 853.296C3565.32 852.548 3573.3 851.426 3579.03 849.931C3585.02 848.186 3589.51 845.942 3592.5 843.2C3595.5 840.208 3597.37 836.468 3598.11 831.981C3598.86 827.494 3599.24 821.885 3599.24 815.153C3599.24 809.918 3598.24 805.057 3596.24 800.569C3594.25 796.082 3591.13 792.093 3586.89 788.603C3582.65 785.113 3577.16 782.371 3570.43 780.376C3563.7 778.382 3555.47 777.385 3545.74 777.385C3528.53 777.385 3514.56 781.623 3503.84 790.099C3493.36 798.575 3487.63 811.414 3486.63 828.616H3472.41C3473.41 807.425 3480.14 791.595 3492.61 781.124C3505.33 770.404 3523.29 765.044 3546.49 765.044C3569.68 765.044 3586.52 769.656 3596.99 778.88C3607.72 787.855 3613.08 799.697 3613.08 814.406V926.216C3613.08 928.958 3613.08 931.701 3613.08 934.443C3613.33 937.185 3613.83 939.678 3614.58 941.922C3615.32 944.165 3616.57 946.035 3618.32 947.531C3620.06 948.778 3622.56 949.401 3625.8 949.401C3628.29 949.401 3631.79 949.027 3636.27 948.279V960.245C3632.53 961.242 3628.67 961.741 3624.68 961.741C3618.94 961.741 3614.33 960.993 3610.83 959.497C3607.59 958.002 3605.1 956.007 3603.35 953.514C3601.61 951.021 3600.36 948.154 3599.61 944.913C3599.11 941.423 3598.86 937.684 3598.86 933.695V923.598ZM3598.86 852.548C3595.37 856.786 3590.01 859.653 3582.78 861.149C3575.79 862.645 3567.94 863.767 3559.21 864.515L3535.26 866.758C3528.28 867.506 3521.3 868.628 3514.31 870.124C3507.33 871.37 3500.97 873.614 3495.23 876.855C3489.75 880.096 3485.26 884.583 3481.77 890.317C3478.27 895.802 3476.53 903.031 3476.53 912.006C3476.53 926.216 3481.02 936.811 3490 943.792C3498.97 950.523 3511.32 953.888 3527.03 953.888C3543.24 953.888 3556.09 951.021 3565.57 945.287C3575.04 939.304 3582.28 932.573 3587.27 925.094C3592.25 917.366 3595.37 910.012 3596.62 903.031C3598.11 895.802 3598.86 890.94 3598.86 888.447V852.548Z" fill="white"/>
<path d="M3825.95 867.88C3825.95 882.589 3823.83 896.051 3819.59 908.266C3815.35 920.233 3809.36 930.579 3801.63 939.304C3794.15 947.78 3785.05 954.387 3774.32 959.123C3763.85 963.86 3752.12 966.228 3739.16 966.228C3725.69 966.228 3713.59 963.735 3702.87 958.749C3692.14 953.514 3683.04 946.285 3675.56 937.06C3668.32 927.836 3662.71 916.743 3658.72 903.779C3654.73 890.816 3652.74 876.356 3652.74 860.401C3652.74 836.718 3654.23 816.151 3657.22 798.7C3660.47 781 3665.58 766.166 3672.56 754.2C3679.55 742.234 3688.4 732.885 3699.12 726.154C3710.1 719.423 3723.32 715.06 3738.78 713.066L3770.21 708.952C3780.43 707.706 3787.42 706.085 3791.16 704.091C3795.15 701.847 3797.77 698.731 3799.01 694.742H3815.47C3814.48 698.98 3813.11 702.72 3811.36 705.961C3809.86 709.202 3807.49 711.944 3804.25 714.187C3801.01 716.431 3796.89 718.301 3791.91 719.797C3786.92 721.043 3780.68 722.165 3773.2 723.162L3742.15 726.902C3730.18 728.398 3719.95 731.264 3711.47 735.503C3702.99 739.741 3695.76 745.724 3689.77 753.452C3683.79 761.18 3678.92 770.778 3675.18 782.246C3671.44 793.714 3668.45 807.425 3666.2 823.38H3666.95C3674.43 805.181 3684.91 792.093 3698.38 784.116C3711.84 776.138 3726.31 772.149 3741.77 772.149C3754 772.149 3765.22 774.393 3775.44 778.88C3785.92 783.368 3794.9 789.85 3802.38 798.326C3809.86 806.553 3815.6 816.649 3819.59 828.616C3823.83 840.333 3825.95 853.421 3825.95 867.88ZM3811.73 867.88C3811.73 855.166 3809.99 843.698 3806.5 833.477C3803 823.256 3798.02 814.53 3791.53 807.301C3785.3 800.071 3777.81 794.462 3769.08 790.473C3760.36 786.484 3750.88 784.49 3740.65 784.49C3730.43 784.49 3720.82 786.484 3711.85 790.473C3702.87 794.212 3695.01 799.697 3688.28 806.927C3681.79 813.907 3676.55 822.508 3672.56 832.729C3668.82 842.701 3666.95 853.919 3666.95 866.384C3666.95 879.099 3668.7 890.816 3672.19 901.535C3675.93 912.255 3680.92 921.479 3687.15 929.208C3693.64 936.936 3701.37 943.044 3710.35 947.531C3719.33 951.769 3729.18 953.888 3739.9 953.888C3750.38 953.888 3759.98 951.894 3768.71 947.905C3777.44 943.916 3784.92 938.182 3791.16 930.703C3797.64 923.224 3802.63 914.25 3806.12 903.779C3809.86 893.059 3811.73 881.093 3811.73 867.88Z" fill="white"/>
<path d="M3850.31 865.636C3850.31 851.925 3852.18 839.086 3855.92 827.12C3859.91 814.904 3865.65 804.184 3873.13 794.96C3880.61 785.736 3889.84 778.507 3900.81 773.271C3911.79 767.787 3924.38 765.044 3938.6 765.044C3952.82 765.044 3965.41 767.787 3976.38 773.271C3987.36 778.507 3996.59 785.736 4004.07 794.96C4011.55 804.184 4017.16 814.904 4020.9 827.12C4024.89 839.086 4026.89 851.925 4026.89 865.636C4026.89 879.348 4024.89 892.311 4020.9 904.527C4017.16 916.743 4011.55 927.462 4004.07 936.687C3996.59 945.661 3987.36 952.891 3976.38 958.376C3965.41 963.611 3952.82 966.228 3938.6 966.228C3924.38 966.228 3911.79 963.611 3900.81 958.376C3889.84 952.891 3880.61 945.661 3873.13 936.687C3865.65 927.462 3859.91 916.743 3855.92 904.527C3852.18 892.311 3850.31 879.348 3850.31 865.636ZM3864.52 865.636C3864.52 877.104 3866.15 888.198 3869.39 898.918C3872.63 909.388 3877.37 918.737 3883.6 926.964C3889.84 935.191 3897.57 941.797 3906.8 946.783C3916.03 951.52 3926.63 953.888 3938.6 953.888C3950.57 953.888 3961.17 951.52 3970.4 946.783C3979.63 941.797 3987.36 935.191 3993.59 926.964C3999.83 918.737 4004.57 909.388 4007.81 898.918C4011.05 888.198 4012.67 877.104 4012.67 865.636C4012.67 854.169 4011.05 843.2 4007.81 832.729C4004.57 822.009 3999.83 812.536 3993.59 804.309C3987.36 796.082 3979.63 789.6 3970.4 784.864C3961.17 779.878 3950.57 777.385 3938.6 777.385C3926.63 777.385 3916.03 779.878 3906.8 784.864C3897.57 789.6 3889.84 796.082 3883.6 804.309C3877.37 812.536 3872.63 822.009 3869.39 832.729C3866.15 843.2 3864.52 854.169 3864.52 865.636Z" fill="white"/>
<path d="M4122.86 961.741H4108.65V781.872H4035.69V769.532H4195.81V781.872H4122.86V961.741Z" fill="white"/>
<path d="M4340.88 923.598H4340.13C4337.89 929.332 4334.64 934.817 4330.4 940.052C4326.16 945.038 4320.93 949.525 4314.69 953.514C4308.71 957.503 4301.85 960.619 4294.12 962.863C4286.38 965.107 4277.9 966.228 4268.68 966.228C4248.22 966.228 4232.39 961.866 4221.16 953.14C4209.94 944.166 4204.33 930.454 4204.33 912.006C4204.33 900.788 4206.57 891.688 4211.06 884.708C4215.55 877.478 4221.16 871.869 4227.9 867.88C4234.88 863.642 4242.49 860.65 4250.72 858.905C4259.2 857.16 4267.3 855.914 4275.04 855.166L4297.11 853.296C4307.33 852.548 4315.31 851.426 4321.05 849.931C4327.04 848.186 4331.53 845.942 4334.52 843.2C4337.51 840.208 4339.38 836.468 4340.13 831.981C4340.88 827.494 4341.25 821.885 4341.25 815.153C4341.25 809.918 4340.26 805.057 4338.26 800.569C4336.27 796.082 4333.15 792.093 4328.91 788.603C4324.67 785.113 4319.18 782.371 4312.45 780.376C4305.71 778.382 4297.48 777.385 4287.76 777.385C4270.55 777.385 4256.58 781.623 4245.85 790.099C4235.38 798.575 4229.64 811.414 4228.65 828.616H4214.43C4215.43 807.425 4222.16 791.595 4234.63 781.124C4247.35 770.404 4265.31 765.044 4288.5 765.044C4311.7 765.044 4328.53 769.656 4339.01 778.88C4349.73 787.855 4355.1 799.697 4355.1 814.406V926.216C4355.1 928.958 4355.1 931.701 4355.1 934.443C4355.35 937.185 4355.84 939.678 4356.59 941.922C4357.34 944.165 4358.59 946.035 4360.33 947.531C4362.08 948.778 4364.57 949.401 4367.82 949.401C4370.31 949.401 4373.8 949.027 4378.29 948.279V960.245C4374.55 961.242 4370.68 961.741 4366.69 961.741C4360.96 961.741 4356.34 960.993 4352.85 959.497C4349.61 958.002 4347.11 956.007 4345.37 953.514C4343.62 951.021 4342.38 948.154 4341.63 944.913C4341.13 941.423 4340.88 937.684 4340.88 933.695V923.598ZM4340.88 852.548C4337.39 856.786 4332.03 859.653 4324.79 861.149C4317.81 862.645 4309.95 863.767 4301.22 864.515L4277.28 866.758C4270.3 867.506 4263.31 868.628 4256.33 870.124C4249.35 871.37 4242.99 873.614 4237.25 876.855C4231.76 880.096 4227.27 884.583 4223.78 890.317C4220.29 895.802 4218.54 903.031 4218.54 912.006C4218.54 926.216 4223.03 936.811 4232.01 943.792C4240.99 950.523 4253.34 953.888 4269.05 953.888C4285.26 953.888 4298.11 951.021 4307.58 945.287C4317.06 939.304 4324.29 932.573 4329.28 925.094C4334.27 917.366 4337.39 910.012 4338.63 903.031C4340.13 895.802 4340.88 890.94 4340.88 888.447V852.548Z" fill="white"/>
<path d="M2133.33 862.841H2194.89V873.77H2133.33V862.841Z" fill="white"/>
</svg>
